<svg width="148" height="40" viewBox="0 0 148 40" fill="none" xmlns="http://www.w3.org/2000/svg">
<path d="M70.5335 7.6795C71.2578 9.26574 71.9821 10.7578 72.7064 12.1702C73.4307 13.5826 74.1551 15.024 74.9228 16.5161C75.6906 18.0082 76.5163 19.5365 77.4 21.1806C78.2836 22.8248 79.2759 24.6501 80.3769 26.6709L81.1012 25.3599C81.3764 24.8312 81.6879 24.2517 82.0283 23.6216L83.151 21.579L84.3678 19.3409L90.6331 7.70848H91.0822C91.3333 9.91038 91.5747 12.1292 91.8065 14.3649C92.0383 16.6006 92.2797 18.7735 92.5308 20.8837C92.7674 22.9842 93.0088 24.9736 93.2551 26.852C93.5014 28.7304 93.7187 30.4204 93.907 31.9221C93.6357 31.8552 93.3596 31.8092 93.0813 31.7845C92.8278 31.7845 92.567 31.7845 92.2918 31.7845C91.97 31.7834 91.6483 31.8003 91.3284 31.8352C91.1069 31.8493 90.888 31.8907 90.6766 31.9584C90.5607 30.558 90.4351 29.0539 90.2999 27.4459C90.1551 25.8452 90.0174 24.2517 89.8653 22.6655C89.7132 21.0792 89.5684 19.5654 89.4163 18.1096C89.2642 16.6537 89.1265 15.3499 88.9889 14.1983H88.9165C88.0039 15.9004 87.1926 17.3997 86.4973 18.7107C85.802 20.0217 85.1718 21.1951 84.6213 22.2526C84.0709 23.3101 83.5783 24.2517 83.1727 25.0919C82.7671 25.9321 82.347 26.7144 81.9848 27.4459C81.6227 28.1775 81.2605 28.8945 80.9346 29.6188C80.6087 30.3432 80.261 31.0675 79.9206 31.7918H79.6091C78.2329 28.8945 76.7988 25.9973 75.3067 23.1001C73.8146 20.2028 72.2863 17.2162 70.7218 14.1403H70.6566C70.0579 19.0319 69.633 22.8948 69.3819 25.7293C69.1308 28.5638 69.0052 30.6015 69.0052 31.8425C68.7964 31.7812 68.5833 31.7352 68.3678 31.7049C67.9903 31.6566 67.6082 31.6566 67.2307 31.7049C67.015 31.7345 66.8019 31.7805 66.5933 31.8425C67.2886 27.3421 67.9356 23.0325 68.5344 18.9135C69.1332 14.7946 69.5991 11.05 69.9323 7.6795H70.5335Z" fill="white"/>
<path d="M98.6948 8.12857L99.5712 8.24446C99.8402 8.2796 100.111 8.29654 100.382 8.29516C100.663 8.2961 100.944 8.27917 101.223 8.24446C101.512 8.24446 101.795 8.17203 102.07 8.12857C101.998 9.82345 101.94 11.33 101.882 12.6338C101.824 13.9375 101.795 15.2485 101.795 16.5595V18.2399C105.373 18.3124 107.77 18.3486 108.987 18.3486C110.204 18.3486 112.602 18.3124 116.18 18.2399V17.1752C116.18 16.3278 116.18 15.5962 116.18 15.0023C116.18 14.4083 116.18 13.7565 116.129 13.1263C116.078 12.4962 116.078 11.8008 116.042 11.0258C116.006 10.2508 115.97 9.30195 115.926 8.12857L116.803 8.24446C117.069 8.27983 117.338 8.29677 117.607 8.29516C117.89 8.29589 118.173 8.27895 118.454 8.24446C118.736 8.24446 119.019 8.17203 119.294 8.12857C119.227 9.66411 119.164 11.1658 119.106 12.6338C119.048 14.1017 119.019 15.42 119.019 16.5885V23.4043C119.019 24.5776 119.019 25.8959 119.106 27.3807C119.193 28.8656 119.229 30.3576 119.294 31.8714C119.011 31.8026 118.723 31.7566 118.432 31.7338C118.157 31.7338 117.882 31.7338 117.607 31.7338C117.331 31.7338 117.063 31.7338 116.803 31.7338C116.508 31.7587 116.215 31.8047 115.926 31.8714C115.989 30.36 116.052 28.868 116.114 27.3952C116.172 25.9466 116.201 24.5994 116.201 23.4043V19.8624H115.477H113.478H111.037H109.009H106.583L101.817 19.9131V23.455C101.817 24.6283 101.817 25.9466 101.904 27.4314C101.99 28.9163 102.019 30.4083 102.092 31.9221C101.809 31.8533 101.52 31.8073 101.23 31.7845C100.955 31.7845 100.679 31.7845 100.404 31.7845C100.129 31.7845 99.861 31.7845 99.593 31.7845C99.298 31.8104 99.0052 31.8564 98.7166 31.9221C98.789 30.4083 98.8469 28.9163 98.9049 27.4459C98.9628 25.9756 98.9918 24.6501 98.9918 23.455V16.5885C98.9918 15.4006 98.9918 14.0679 98.9049 12.5976C98.818 11.1272 98.7817 9.64238 98.6948 8.12857Z" fill="white"/>
<path d="M137.844 7.67949C139.393 7.67073 140.939 7.82121 142.457 8.12856C143.904 8.43432 145.296 8.9569 146.586 9.67859C146.374 10.0996 146.207 10.5414 146.086 10.9968C145.959 11.4313 145.862 11.8742 145.797 12.3223H145.384C144.439 11.2348 143.263 10.3713 141.943 9.79448C140.636 9.2361 139.229 8.9502 137.807 8.95428C136.376 8.92719 134.953 9.17301 133.614 9.67859C132.407 10.1533 131.325 10.8963 130.448 11.8515C129.538 12.8546 128.852 14.0397 128.435 15.3282C127.937 16.8373 127.692 18.4183 127.711 20.0072C127.693 21.5559 127.938 23.0964 128.435 24.5632C128.863 25.8348 129.554 27.0021 130.463 27.9891C131.357 28.9466 132.457 29.6894 133.679 30.1621C135.056 30.6687 136.515 30.9143 137.981 30.8864C139.004 30.882 140.024 30.79 141.031 30.6111C141.894 30.4925 142.727 30.2124 143.486 29.7854C143.486 29.6695 143.486 29.2567 143.522 28.5469C143.558 27.837 143.522 26.8954 143.522 25.722V24.7804C143.522 24.4835 143.522 24.2082 143.522 23.9547L143.385 20.8909C143.928 21.0038 144.481 21.062 145.036 21.0647C145.311 21.0647 145.572 21.0647 145.811 21.0647C146.057 21.0464 146.3 21.0002 146.535 20.9271C146.492 21.8904 146.456 22.8972 146.434 23.9402C146.412 24.9833 146.434 26.2291 146.434 27.6704V30.6981C145.746 30.9298 144.985 31.1471 144.196 31.3572C143.406 31.5672 142.595 31.7411 141.806 31.8859C141.016 32.0308 140.256 32.1539 139.539 32.2336C138.904 32.3089 138.265 32.35 137.626 32.3567C135.723 32.3784 133.828 32.0972 132.013 31.5238C130.468 31.038 129.047 30.2225 127.848 29.1335C126.699 28.0572 125.812 26.7315 125.255 25.2585C124.628 23.5826 124.324 21.8034 124.357 20.0145C124.325 18.2423 124.648 16.4816 125.306 14.8357C125.902 13.3562 126.825 12.0312 128.007 10.9606C129.242 9.87099 130.687 9.04528 132.252 8.53418C134.057 7.94855 135.946 7.6599 137.844 7.67949Z" fill="white"/>
<path d="M13.2336 9.83795C11.785 6.65099 10.1046 5.28929 7.14939 4.40563C6.72442 4.27927 6.29121 4.18246 5.85287 4.11591C4.31369 3.80325 2.71406 4.01755 1.31145 4.72433L1 5.09373C1 5.09373 5.96876 5.39069 7.83024 11.3807C8.67044 14.0607 9.40199 17.0303 9.93074 19.4785C10.7782 23.187 11.6184 26.9968 13.0308 30.1114V30.1621C14.4794 33.349 16.1526 34.7107 19.115 35.5872C19.5405 35.7131 19.9736 35.8123 20.4115 35.8841C21.9467 36.2007 23.5438 35.9915 24.9457 35.2902L25.2644 34.9063C25.2644 34.9063 20.2956 34.6021 18.4269 28.6193C17.5867 25.9321 16.8624 22.9697 16.3336 20.5143C15.4862 16.8058 14.6605 13.0032 13.2553 9.88866L13.2336 9.83795Z" fill="#C7A87E"/>
<path d="M43.3506 9.83795C41.902 6.65099 40.2288 5.28928 37.2664 4.40563C36.8416 4.27851 36.4084 4.18169 35.9699 4.1159C34.4284 3.80041 32.8256 4.0148 31.4212 4.72432L31.1025 5.10821C31.1025 5.10821 36.0713 5.40517 37.94 11.3952C38.7802 14.0752 39.5045 17.0448 40.0333 19.493C40.8807 23.2015 41.7209 27.0113 43.1333 30.1259V30.1766C44.5819 33.3635 46.2623 34.7252 49.2175 35.6016C49.6532 35.719 50.0959 35.8085 50.543 35.8696C52.0806 36.1851 53.6796 35.9759 55.0844 35.2757L55.3959 34.8918C55.3959 34.8918 50.4271 34.5876 48.5584 28.6048C47.7182 25.9176 46.9939 22.9552 46.4651 20.4998C45.6177 16.7913 44.7775 12.9887 43.3651 9.87416L43.3506 9.83795Z" fill="#C7A87E"/>
<path d="M28.2922 9.83796C26.8436 6.651 25.1632 5.2893 22.208 4.40564C21.7832 4.27852 21.3499 4.1817 20.9115 4.11592C19.3722 3.80496 17.7732 4.01919 16.37 4.72434L16.0586 5.10822C16.0586 5.10822 21.0274 5.40519 22.8888 11.3952C23.7363 14.0752 24.4606 17.0448 24.9893 19.493C25.8368 23.2015 26.677 27.0113 28.0894 30.1259V30.1766C29.538 33.3635 31.2112 34.7252 34.1736 35.6017C34.5991 35.7276 35.0321 35.8268 35.4701 35.8986C37.0053 36.2152 38.6024 36.006 40.0043 35.3047L40.323 34.9208C40.323 34.9208 35.3542 34.6166 33.4855 28.6338C32.6453 25.9466 31.921 22.9842 31.3922 20.5288C30.5448 16.8203 29.7046 13.0177 28.2922 9.90315V9.83796Z" fill="#C7A87E"/>
</svg>
