<svg width="40" height="40" viewBox="0 0 40 40" fill="none" xmlns="http://www.w3.org/2000/svg">
<g id="play-fill">
<path id="Vector" d="M32.2935 20.6934L14.6285 32.4701C14.503 32.5536 14.3572 32.6015 14.2066 32.6087C14.0561 32.6159 13.9064 32.5821 13.7735 32.511C13.6406 32.4398 13.5295 32.334 13.452 32.2047C13.3745 32.0754 13.3336 31.9275 13.3335 31.7767V8.22341C13.3336 8.07267 13.3745 7.92478 13.452 7.79548C13.5295 7.66618 13.6406 7.56032 13.7735 7.48917C13.9064 7.41802 14.0561 7.38425 14.2066 7.39145C14.3572 7.39866 14.503 7.44656 14.6285 7.53007L32.2935 19.3067C32.4076 19.3828 32.5012 19.4859 32.5659 19.6069C32.6306 19.7278 32.6645 19.8629 32.6645 20.0001C32.6645 20.1373 32.6306 20.2723 32.5659 20.3933C32.5012 20.5142 32.4076 20.6173 32.2935 20.6934Z" fill="white"/>
</g>
</svg>
